<svg id="visual" viewBox="0 0 1500 540" width="1500" height="540" xmlns="http://www.w3.org/2000/svg" xmlns:xlink="http://www.w3.org/1999/xlink" version="1.1"><path d="M0 45L50 58.7C100 72.3 200 99.7 300 112.7C400 125.7 500 124.3 600 127.5C700 130.7 800 138.3 900 125.5C1000 112.7 1100 79.3 1200 74.8C1300 70.3 1400 94.7 1450 106.8L1500 119L1500 0L1450 0C1400 0 1300 0 1200 0C1100 0 1000 0 900 0C800 0 700 0 600 0C500 0 400 0 300 0C200 0 100 0 50 0L0 0Z" fill="#faf9f7" stroke-linecap="round" stroke-linejoin="miter"></path></svg>